<?xml version="1.0" encoding="UTF-8" standalone="no"?>
<!-- Created with Inkscape (http://www.inkscape.org/) -->

<svg
   width="36mm"
   height="36mm"
   viewBox="0 0 36 36"
   version="1.1"
   id="svg1"
   inkscape:version="1.3.2 (091e20e, 2023-11-25, custom)"
   sodipodi:docname="icon.svg"
   inkscape:export-filename="icon.png"
   inkscape:export-xdpi="96"
   inkscape:export-ydpi="96"
   xmlns:inkscape="http://www.inkscape.org/namespaces/inkscape"
   xmlns:sodipodi="http://sodipodi.sourceforge.net/DTD/sodipodi-0.dtd"
   xmlns="http://www.w3.org/2000/svg"
   xmlns:svg="http://www.w3.org/2000/svg">
  <sodipodi:namedview
     id="namedview1"
     pagecolor="#ffffff"
     bordercolor="#000000"
     borderopacity="0.25"
     inkscape:showpageshadow="2"
     inkscape:pageopacity="0.0"
     inkscape:pagecheckerboard="0"
     inkscape:deskcolor="#d1d1d1"
     inkscape:document-units="mm"
     inkscape:zoom="4.1877625"
     inkscape:cx="49.549132"
     inkscape:cy="75.33856"
     inkscape:window-width="1920"
     inkscape:window-height="1009"
     inkscape:window-x="-8"
     inkscape:window-y="-8"
     inkscape:window-maximized="1"
     inkscape:current-layer="layer1" />
  <defs
     id="defs1" />
  <g
     inkscape:label="Layer 1"
     inkscape:groupmode="layer"
     id="layer1">
    <g
       id="BACKGROUND"
       transform="scale(0.09028481,0.09367644)"
       style="fill:#004d8a;fill-opacity:1">
	<rect
   style="fill:#004d8a;stroke-width:0.782907;fill-opacity:1"
   width="398.73816"
   height="384.30154"
   id="rect1"
   x="0"
   y="0"
   ry="71.30455" />

</g>
    <g
       id="g74"
       transform="matrix(0.30235813,0,0,0.30235813,-13.472911,-59.877022)">
      <g
         id="g34">
		<path
   style="fill:#3b9ab7"
   d="m 157.612,264.444 c -1.204,19.768 -24.708,35.544 -53.521,35.544 -28.813,0 -52.316,-15.776 -53.521,-35.544 6.409,16.326 27.941,28.32 53.521,28.32 25.58,0 47.112,-11.993 53.521,-28.32 z"
   id="path30" />

		<path
   style="fill:#3b9ab7"
   d="m 50.571,250.687 c 1.204,-19.768 24.708,-35.545 53.521,-35.545 28.813,0 52.316,15.776 53.521,35.545 -6.409,-16.326 -27.941,-28.32 -53.521,-28.32 -25.58,0 -47.112,11.994 -53.521,28.32 z"
   id="path31" />

		<g
   id="g33">
			<path
   style="fill:#5baece"
   d="m 97.213,311.086 c -19.768,-1.204 -35.544,-24.708 -35.544,-53.521 0,-28.813 15.776,-52.316 35.544,-53.521 -16.326,6.409 -28.32,27.941 -28.32,53.521 0,25.58 11.993,47.112 28.32,53.521 z"
   id="path32" />

			<path
   style="fill:#5baece"
   d="m 110.97,204.045 c 19.768,1.204 35.544,24.708 35.544,53.521 0,28.813 -15.776,52.316 -35.544,53.521 16.326,-6.409 28.32,-27.941 28.32,-53.521 0,-25.58 -11.994,-47.112 -28.32,-53.521 z"
   id="path33" />

		</g>

	</g>
      <text
         style="font-size:30.3187px;font-family:Montserrat-Bold;fill:#ffffff"
         id="text63"
         x="75.981201"
         y="267.5954">360</text>
      <text
         style="font-size:8.6089px;font-family:Montserrat-Bold;fill:#5baece"
         id="text64"
         x="83.873299"
         y="240.3356">DevLoop</text>
      <g
         id="g65">
		<text
   style="font-size:8.8752px;font-family:Montserrat-Medium;fill:#ffffff"
   id="text65"
   x="81.270294"
   y="279.63358">NEWS API</text>

	</g>
    </g>
  </g>
</svg>
